#!OML:ASF E:\motion texture\Top Level 1\Subject 1\Session 1\male.ASF
:FULLY-SPECIFIED
:DEGREES
580
root -14.7357 17.5225 3.73916 912.431 -95.4465 -906.934
lowerback -3.97726 -3.34037 -2.20134
upperback -4.55545 -4.48254 3.0648
thorax -2.05832 -2.19122 4.287
lowerneck -18.8922 -3.49296 -6.73348
upperneck 17.05 -4.1746 5.79607
head 8.70282 -1.81557 2.52906
rclavicle 2.67862e-014 -1.11319e-014
rhumerus -52.4863 5.26782 -86.2867
rradius 63.1763
rwrist -9.90053
rhand -20.0338 -12.588
rfingers 7.12502
rthumb 6.30714 -42.4741
lclavicle 2.67862e-014 -1.11319e-014
lhumerus -16.0845 -21.1498 93.7604
lradius 67.3894
lwrist 3.28461
lhand -16.1473 7.67523
lfingers 7.12502
lthumb 10.0581 37.4149
rfemur -35.7706 -3.74567 22.3864
rtibia 38.7665
rfoot 538.715 -184.564
rtoes 18.7031
lfemur 7.37754 -5.76551 -17.5525
ltibia 32.9144
lfoot 546.315 165.769
ltoes -21.136
581
root -14.8973 17.5079 3.71805 921.436 -95.0717 -916.179
lowerback -3.72654 -3.05831 -1.35857
upperback -4.48768 -4.12436 3.22432
thorax -2.20407 -2.03091 4.00503
lowerneck -19.1294 -3.52723 -6.70531
upperneck 17.0474 -4.18207 5.66394
head 8.74071 -1.82595 2.47641
rclavicle 3.20043e-014 -4.53229e-014
rhumerus -50.4214 5.47991 -87.0559
rradius 63.332
rwrist -9.77613
rhand -20.1807 -12.7292
rfingers 7.12502
rthumb 6.16538 -42.6195
lclavicle 3.20043e-014 -4.53229e-014
lhumerus -17.8348 -21.1991 94.399
lradius 65.9409
lwrist 2.95831
lhand -16.1634 7.79274
lfingers 7.12502
lthumb 10.0425 37.5331
rfemur -34.6523 -2.72558 23.4538
rtibia 38.244
rfoot 537.524 -184.823
rtoes 19.6643
lfemur 5.7033 -5.14052 -16.3865
ltibia 36.3363
lfoot 549.627 165.722
ltoes -18.7471
582
root -15.0502 17.4978 3.69928 931.578 -94.78 -926.627
lowerback -3.3888 -2.78414 -0.524625
upperback -4.34519 -3.77035 3.37792
thorax -2.31385 -1.87338 3.72011
lowerneck -19.4033 -3.53108 -6.60687
upperneck 16.9467 -4.14572 5.46896
head 8.74551 -1.81655 2.39568
rclavicle 2.48978e-014 3.4191e-014
rhumerus -48.1683 5.87518 -87.8441
rradius 63.592
rwrist -9.63219
rhand -20.2958 -12.8965
rfingers 7.12502
rthumb 6.0542 -42.79
lclavicle 2.48978e-014 3.4191e-014
lhumerus -19.5734 -21.0878 94.9797
lradius 64.4563
lwrist 2.53174
lhand -16.2284 7.88791
lfingers 7.12502
lthumb 9.97977 37.6313
rfemur -33.6049 -1.75514 24.4867
rtibia 37.9133
rfoot 536.608 -184.972
rtoes 20.1743
lfemur 3.83507 -4.45792 -15.2949
ltibia 40.1027
lfoot 552.779 165.706
ltoes -16.221
583
root -15.1952 17.4911 3.68202 942.152 -94.6309 -937.553
lowerback -3.00221 -2.53729 0.260073
upperback -4.13868 -3.44592 3.52689
thorax -2.37396 -1.72966 3.45395
lowerneck -19.6612 -3.5053 -6.4639
upperneck 16.7289 -4.07027 5.24181
head 8.70323 -1.78919 2.30154
rclavicle -1.47101e-014 2.94201e-014
rhumerus -45.7597 6.4583 -88.6246
rradius 63.9787
rwrist -9.48354
rhand -20.3956 -13.0773
rfingers 7.12502
rthumb 5.95787 -42.9736
lclavicle -1.47101e-014 2.94201e-014
lhumerus -21.3017 -20.8074 95.508
lradius 62.9308
lwrist 2.08085
lhand -16.3594 7.94022
lfingers 7.12502
lthumb 9.8534 37.6897
rfemur -32.5979 -0.887426 25.4558
rtibia 37.7122
rfoot 535.864 -185.014
rtoes 20.3672
lfemur 1.76656 -3.76822 -14.3024
ltibia 44.192
lfoot 555.484 165.645
ltoes -13.7371
584
root -15.3333 17.4873 3.66572 952.116 -94.6513 -947.9
lowerback -2.58196 -2.3289 0.979055
upperback -3.88745 -3.16664 3.67316
thorax -2.39571 -1.60641 3.21827
lowerneck -19.8817 -3.45766 -6.28236
upperneck 16.423 -3.96999 4.98549
head 8.62149 -1.75135 2.19464
rclavicle -6.26172e-015 -1.74931e-014
rhumerus -43.2406 7.21647 -89.3652
rradius 64.5127
rwrist -9.36378
rhand -20.5351 -13.2001
rfingers 7.12502
rthumb 5.8232 -43.1001
lclavicle -6.26172e-015 -1.74931e-014
lhumerus -23.0083 -20.3732 95.9906
lradius 61.3383
lwrist 1.69551
lhand -16.539 7.9871
lfingers 7.12502
lthumb 9.68015 37.7447
rfemur -31.5849 -0.150271 26.3513
rtibia 37.5358
rfoot 535.231 -184.988
rtoes 20.48
lfemur -0.499365 -3.11015 -13.4085
ltibia 48.5706
lfoot 557.485 165.553
ltoes -11.5096
585
root -15.4658 17.486 3.64995 960.825 -94.8403 -957.003
lowerback -2.1588 -2.15452 1.65772
upperback -3.60874 -2.92884 3.82659
thorax -2.38251 -1.50227 3.00912
lowerneck -20.0456 -3.39972 -6.09105
upperneck 16.0558 -3.86166 4.72643
head 8.50887 -1.71049 2.0869
rclavicle 1.799e-014 -3.4191e-014
rhumerus -40.6474 8.12137 -90.0251
rradius 65.1999
rwrist -9.27145
rhand -20.6807 -13.2908
rfingers 7.12502
rthumb 5.68261 -43.1946
lclavicle 1.799e-014 -3.4191e-014
lhumerus -24.6729 -19.804 96.4335
lradius 59.6497
lwrist 1.44005
lhand -16.745 8.02312
lfingers 7.12502
lthumb 9.48135 37.7898
rfemur -30.5486 0.432979 27.2178
rtibia 37.3174
rfoot 534.691 -184.913
rtoes 20.4975
lfemur -2.95987 -2.48538 -12.5707
ltibia 53.178
lfoot 558.643 165.484
ltoes -9.65101
586
root -15.593 17.4878 3.63476 967.91 -95.1848 -964.471
lowerback -1.74354 -2.00975 2.32239
upperback -3.32937 -2.72803 3.99713
thorax -2.35836 -1.41572 2.82344
lowerneck -20.1429 -3.34059 -5.91101
upperneck 15.6733 -3.75915 4.48633
head 8.38123 -1.67246 1.98761
rclavicle -3.97569e-015 2.3059e-014
rhumerus -38.0214 9.1426 -90.5742
rradius 66.0367
rwrist -9.22055
rhand -20.8444 -13.3387
rfingers 7.12502
rthumb 5.52457 -43.2466
lclavicle -3.97569e-015 2.3059e-014
lhumerus -26.2697 -19.1181 96.8378
lradius 57.8231
lwrist 1.34684
lhand -16.9506 8.04582
lfingers 7.12502
lthumb 9.28302 37.8214
rfemur -29.4916 0.866314 28.0927
rtibia 37.0154
rfoot 534.225 -184.829
rtoes 20.5135
lfemur -5.62122 -1.87879 -11.7449
ltibia 57.945
lfoot 558.958 165.523
ltoes -8.18855
587
root -15.7153 17.4932 3.62 973.552 -95.6517 -970.47
lowerback -1.34574 -1.87752 2.988
upperback -3.06159 -2.54229 4.18802
thorax -2.33254 -1.33638 2.65687
lowerneck -20.1792 -3.29306 -5.75454
upperneck 15.3111 -3.67902 4.27592
head 8.2531 -1.64462 1.90021
rclavicle -4.07509e-015 7.95139e-016
rhumerus -35.3817 10.2417 -90.984
rradius 67.018
rwrist -9.21152
rhand -21.0036 -13.3535
rfingers 7.12502
rthumb 5.37089 -43.2654
lclavicle -4.07509e-015 7.95139e-016
lhumerus -27.7695 -18.3335 97.1959
lradius 55.8357
lwrist 1.38057
lhand -17.188 8.05299
lfingers 7.12502
lthumb 9.05389 37.8387
rfemur -28.427 1.18579 28.9973
rtibia 36.6319
rfoot 533.814 -184.745
rtoes 20.5481
lfemur -8.47766 -1.2434 -10.9036
ltibia 62.799
lfoot 558.544 165.707
ltoes -7.09681
588
root -15.833 17.503 3.60548 977.859 -96.1931 -975.097
lowerback -0.960246 -1.75036 3.63757
upperback -2.82693 -2.36066 4.38994
thorax -2.33034 -1.25883 2.51038
lowerneck -20.1637 -3.26483 -5.62817
upperneck 15.0092 -3.63212 4.10622
head 8.14025 -1.63123 1.82798
rclavicle 8.44835e-016 7.15625e-015
rhumerus -32.7576 11.3714 -91.2416
rradius 68.1227
rwrist -9.22909
rhand -21.1296 -13.3238
rfingers 7.12502
rthumb 5.24917 -43.2388
lclavicle 8.44835e-016 7.15625e-015
lhumerus -29.1618 -17.4696 97.4939
lradius 53.6727
lwrist 1.4399
lhand -17.4489 8.02731
lfingers 7.12502
lthumb 8.80215 37.8237
rfemur -27.3676 1.42186 29.9087
rtibia 36.163
rfoot 533.455 -184.677
rtoes 20.6076
lfemur -11.5221 -0.557337 -10.0678
ltibia 67.6566
lfoot 557.576 165.982
ltoes -6.25723
589
root -15.9466 17.5178 3.59113 981.256 -96.743 -978.767
lowerback -0.589212 -1.6153 4.23594
upperback -2.63217 -2.16513 4.58577
thorax -2.35718 -1.17369 2.38577
lowerneck -20.0981 -3.2603 -5.54748
upperneck 14.7704 -3.62451 4.00564
head 8.04477 -1.63307 1.7821
rclavicle -2.69353e-014 2.70347e-014
rhumerus -30.157 12.4807 -91.3438
rradius 69.3247
rwrist -9.23894
rhand -21.2166 -13.3158
rfingers 7.12502
rthumb 5.16523 -43.2328
lclavicle -2.69353e-014 2.70347e-014
lhumerus -30.4409 -16.5384 97.7092
lradius 51.3516
lwrist 1.38653
lhand -17.724 7.98197
lfingers 7.12502
lthumb 8.53669 37.7894
rfemur -26.3298 1.62329 30.7772
rtibia 35.6279
rfoot 533.141 -184.622
rtoes 20.6733
lfemur -14.7376 0.200305 -9.29097
ltibia 72.4391
lfoot 556.257 166.175
ltoes -5.59709
590
root -16.0569 17.5381 3.57662 984.125 -97.2475 -981.862
lowerback -0.238939 -1.46536 4.74564
upperback -2.47379 -1.94682 4.75952
thorax -2.40514 -1.07576 2.28648
lowerneck -20.0231 -3.28069 -5.48375
upperneck 14.6127 -3.65767 3.94497
head 7.97833 -1.65167 1.74747
rclavicle -7.95139e-016 -2.3059e-014
rhumerus -27.5692 13.5361 -91.2969
rradius 70.597
rwrist -9.22952
rhand -21.228 -13.3169
rfingers 7.12502
rthumb 5.15422 -43.2342
lclavicle -7.95139e-016 -2.3059e-014
lhumerus -31.61 -15.5391 97.8112
lradius 48.9109
lwrist 1.06188
lhand -18.0276 7.90869
lfingers 7.12502
lthumb 8.24366 37.7279
rfemur -25.3228 1.83068 31.5597
rtibia 35.0369
rfoot 532.88 -184.575
rtoes 20.7299
lfemur -18.1024 1.03464 -8.62673
ltibia 77.0767
lfoot 554.796 165.916
ltoes -4.94568
